<svg width="22" height="21" viewBox="0 0 22 21" fill="none" xmlns="http://www.w3.org/2000/svg">
    <path
        d="M5.15958 15.9282C4.92568 15.6494 4.93952 15.2452 5.17767 14.9833L5.24817 14.9156L16.2601 5.6755C16.5641 5.42034 17.0175 5.46 17.2727 5.76409C17.5065 6.04283 17.4927 6.44701 17.2546 6.70897L17.1841 6.77669L6.17218 16.0168C5.86809 16.2719 5.41474 16.2323 5.15958 15.9282Z"
        fill="white" />
    <path
        d="M8.50857 6.24637C8.11305 6.21263 7.81978 5.86464 7.85352 5.46912C7.8842 5.10956 8.17458 4.8345 8.52428 4.81281L8.63077 4.81408L16.783 5.50962C17.1437 5.54039 17.4191 5.83234 17.4395 6.1831L17.4378 6.2899L16.7078 14.4398C16.6724 14.8352 16.3232 15.127 15.9278 15.0916C15.5684 15.0594 15.2945 14.7679 15.2743 14.4181L15.276 14.3116L15.9412 6.88049L8.50857 6.24637Z"
        fill="white" />
</svg>