<svg width="262" height="141" viewBox="0 0 262 141" fill="none" xmlns="http://www.w3.org/2000/svg">
<g filter="url(#filter0_b_1_329)">
<rect y="0.882629" width="262" height="140" rx="20" fill="url(#paint0_linear_1_329)"/>
</g>
<path d="M29.4111 32.288C29.4111 32.8853 29.2671 33.4453 28.9791 33.968C28.7018 34.4907 28.2591 34.912 27.6511 35.232C27.0538 35.552 26.2965 35.712 25.3791 35.712H23.5071V40H21.2671V28.832H25.3791C26.2431 28.832 26.9791 28.9813 27.5871 29.28C28.1951 29.5787 28.6485 29.9893 28.9471 30.512C29.2565 31.0347 29.4111 31.6267 29.4111 32.288ZM25.2831 33.904C25.9018 33.904 26.3605 33.7653 26.6591 33.488C26.9578 33.2 27.1071 32.8 27.1071 32.288C27.1071 31.2 26.4991 30.656 25.2831 30.656H23.5071V33.904H25.2831ZM30.5855 35.536C30.5855 34.64 30.7615 33.8453 31.1135 33.152C31.4762 32.4587 31.9615 31.9253 32.5695 31.552C33.1882 31.1787 33.8762 30.992 34.6335 30.992C35.2948 30.992 35.8708 31.1253 36.3615 31.392C36.8628 31.6587 37.2628 31.9947 37.5615 32.4V31.136H39.8175V40H37.5615V38.704C37.2735 39.12 36.8735 39.4667 36.3615 39.744C35.8602 40.0107 35.2788 40.144 34.6175 40.144C33.8708 40.144 33.1882 39.952 32.5695 39.568C31.9615 39.184 31.4762 38.6453 31.1135 37.952C30.7615 37.248 30.5855 36.4427 30.5855 35.536ZM37.5615 35.568C37.5615 35.024 37.4548 34.56 37.2415 34.176C37.0282 33.7813 36.7402 33.4827 36.3775 33.28C36.0148 33.0667 35.6255 32.96 35.2095 32.96C34.7935 32.96 34.4095 33.0613 34.0575 33.264C33.7055 33.4667 33.4175 33.7653 33.1935 34.16C32.9802 34.544 32.8735 35.0027 32.8735 35.536C32.8735 36.0693 32.9802 36.5387 33.1935 36.944C33.4175 37.3387 33.7055 37.6427 34.0575 37.856C34.4202 38.0693 34.8042 38.176 35.2095 38.176C35.6255 38.176 36.0148 38.0747 36.3775 37.872C36.7402 37.6587 37.0282 37.36 37.2415 36.976C37.4548 36.5813 37.5615 36.112 37.5615 35.568ZM50.6452 31.136L45.1572 44.192H42.7732L44.6932 39.776L41.1412 31.136H43.6532L45.9412 37.328L48.2612 31.136H50.6452ZM63.0207 31.008C64.1087 31.008 64.9834 31.344 65.6447 32.016C66.3167 32.6773 66.6527 33.6053 66.6527 34.8V40H64.4127V35.104C64.4127 34.4107 64.2367 33.8827 63.8847 33.52C63.5327 33.1467 63.0527 32.96 62.4447 32.96C61.8367 32.96 61.3514 33.1467 60.9887 33.52C60.6367 33.8827 60.4607 34.4107 60.4607 35.104V40H58.2207V35.104C58.2207 34.4107 58.0447 33.8827 57.6927 33.52C57.3407 33.1467 56.8607 32.96 56.2527 32.96C55.6341 32.96 55.1434 33.1467 54.7807 33.52C54.4287 33.8827 54.2527 34.4107 54.2527 35.104V40H52.0127V31.136H54.2527V32.208C54.5407 31.8347 54.9087 31.5413 55.3567 31.328C55.8154 31.1147 56.3167 31.008 56.8607 31.008C57.5541 31.008 58.1727 31.1573 58.7167 31.456C59.2607 31.744 59.6821 32.16 59.9807 32.704C60.2687 32.192 60.6847 31.7813 61.2287 31.472C61.7834 31.1627 62.3807 31.008 63.0207 31.008ZM77.1784 35.376C77.1784 35.696 77.157 35.984 77.1144 36.24H70.6344C70.6877 36.88 70.9117 37.3813 71.3064 37.744C71.701 38.1067 72.1864 38.288 72.7624 38.288C73.5944 38.288 74.1864 37.9307 74.5384 37.216H76.9544C76.6984 38.0693 76.2077 38.7733 75.4824 39.328C74.757 39.872 73.8664 40.144 72.8104 40.144C71.957 40.144 71.189 39.9573 70.5064 39.584C69.8344 39.2 69.3064 38.6613 68.9224 37.968C68.549 37.2747 68.3624 36.4747 68.3624 35.568C68.3624 34.6507 68.549 33.8453 68.9224 33.152C69.2957 32.4587 69.8184 31.9253 70.4904 31.552C71.1624 31.1787 71.9357 30.992 72.8104 30.992C73.653 30.992 74.405 31.1733 75.0664 31.536C75.7384 31.8987 76.2557 32.416 76.6184 33.088C76.9917 33.7493 77.1784 34.512 77.1784 35.376ZM74.8584 34.736C74.8477 34.16 74.6397 33.7013 74.2344 33.36C73.829 33.008 73.333 32.832 72.7464 32.832C72.1917 32.832 71.7224 33.0027 71.3384 33.344C70.965 33.6747 70.7357 34.1387 70.6504 34.736H74.8584ZM83.8854 31.008C84.9414 31.008 85.7947 31.344 86.4454 32.016C87.096 32.6773 87.4214 33.6053 87.4214 34.8V40H85.1814V35.104C85.1814 34.4 85.0054 33.8613 84.6534 33.488C84.3014 33.104 83.8214 32.912 83.2134 32.912C82.5947 32.912 82.104 33.104 81.7414 33.488C81.3894 33.8613 81.2134 34.4 81.2134 35.104V40H78.9734V31.136H81.2134V32.24C81.512 31.856 81.8907 31.5573 82.3494 31.344C82.8187 31.12 83.3307 31.008 83.8854 31.008ZM92.3195 32.976V37.264C92.3195 37.5627 92.3888 37.7813 92.5275 37.92C92.6768 38.048 92.9222 38.112 93.2635 38.112H94.3035V40H92.8955C91.0075 40 90.0635 39.0827 90.0635 37.248V32.976H89.0075V31.136H90.0635V28.944H92.3195V31.136H94.3035V32.976H92.3195ZM112.223 28.832V40H109.983V32.736L106.991 40H105.295L102.287 32.736V40H100.047V28.832H102.591L106.143 37.136L109.695 28.832H112.223ZM122.838 35.376C122.838 35.696 122.816 35.984 122.774 36.24H116.294C116.347 36.88 116.571 37.3813 116.966 37.744C117.36 38.1067 117.846 38.288 118.422 38.288C119.254 38.288 119.846 37.9307 120.198 37.216H122.614C122.358 38.0693 121.867 38.7733 121.142 39.328C120.416 39.872 119.526 40.144 118.47 40.144C117.616 40.144 116.848 39.9573 116.166 39.584C115.494 39.2 114.966 38.6613 114.582 37.968C114.208 37.2747 114.022 36.4747 114.022 35.568C114.022 34.6507 114.208 33.8453 114.582 33.152C114.955 32.4587 115.478 31.9253 116.15 31.552C116.822 31.1787 117.595 30.992 118.47 30.992C119.312 30.992 120.064 31.1733 120.726 31.536C121.398 31.8987 121.915 32.416 122.278 33.088C122.651 33.7493 122.838 34.512 122.838 35.376ZM120.518 34.736C120.507 34.16 120.299 33.7013 119.894 33.36C119.488 33.008 118.992 32.832 118.406 32.832C117.851 32.832 117.382 33.0027 116.998 33.344C116.624 33.6747 116.395 34.1387 116.31 34.736H120.518ZM127.241 32.976V37.264C127.241 37.5627 127.31 37.7813 127.449 37.92C127.598 38.048 127.843 38.112 128.185 38.112H129.225V40H127.817C125.929 40 124.985 39.0827 124.985 37.248V32.976H123.929V31.136H124.985V28.944H127.241V31.136H129.225V32.976H127.241ZM135.988 31.008C136.66 31.008 137.257 31.1573 137.78 31.456C138.303 31.744 138.708 32.176 138.996 32.752C139.295 33.3173 139.444 34 139.444 34.8V40H137.204V35.104C137.204 34.4 137.028 33.8613 136.676 33.488C136.324 33.104 135.844 32.912 135.236 32.912C134.617 32.912 134.127 33.104 133.764 33.488C133.412 33.8613 133.236 34.4 133.236 35.104V40H130.996V28.16H133.236V32.24C133.524 31.856 133.908 31.5573 134.388 31.344C134.868 31.12 135.401 31.008 135.988 31.008ZM145.67 40.144C144.817 40.144 144.049 39.9573 143.366 39.584C142.683 39.2 142.145 38.6613 141.75 37.968C141.366 37.2747 141.174 36.4747 141.174 35.568C141.174 34.6613 141.371 33.8613 141.766 33.168C142.171 32.4747 142.721 31.9413 143.414 31.568C144.107 31.184 144.881 30.992 145.734 30.992C146.587 30.992 147.361 31.184 148.054 31.568C148.747 31.9413 149.291 32.4747 149.686 33.168C150.091 33.8613 150.294 34.6613 150.294 35.568C150.294 36.4747 150.086 37.2747 149.67 37.968C149.265 38.6613 148.71 39.2 148.006 39.584C147.313 39.9573 146.534 40.144 145.67 40.144ZM145.67 38.192C146.075 38.192 146.454 38.096 146.806 37.904C147.169 37.7013 147.457 37.4027 147.67 37.008C147.883 36.6133 147.99 36.1333 147.99 35.568C147.99 34.7253 147.766 34.08 147.318 33.632C146.881 33.1733 146.342 32.944 145.702 32.944C145.062 32.944 144.523 33.1733 144.086 33.632C143.659 34.08 143.446 34.7253 143.446 35.568C143.446 36.4107 143.654 37.0613 144.07 37.52C144.497 37.968 145.03 38.192 145.67 38.192ZM151.521 35.536C151.521 34.64 151.697 33.8453 152.049 33.152C152.412 32.4587 152.902 31.9253 153.521 31.552C154.14 31.1787 154.828 30.992 155.585 30.992C156.161 30.992 156.71 31.12 157.233 31.376C157.756 31.6213 158.172 31.952 158.481 32.368V28.16H160.753V40H158.481V38.688C158.204 39.1253 157.814 39.4773 157.313 39.744C156.812 40.0107 156.23 40.144 155.569 40.144C154.822 40.144 154.14 39.952 153.521 39.568C152.902 39.184 152.412 38.6453 152.049 37.952C151.697 37.248 151.521 36.4427 151.521 35.536ZM158.497 35.568C158.497 35.024 158.39 34.56 158.177 34.176C157.964 33.7813 157.676 33.4827 157.313 33.28C156.95 33.0667 156.561 32.96 156.145 32.96C155.729 32.96 155.345 33.0613 154.993 33.264C154.641 33.4667 154.353 33.7653 154.129 34.16C153.916 34.544 153.809 35.0027 153.809 35.536C153.809 36.0693 153.916 36.5387 154.129 36.944C154.353 37.3387 154.641 37.6427 154.993 37.856C155.356 38.0693 155.74 38.176 156.145 38.176C156.561 38.176 156.95 38.0747 157.313 37.872C157.676 37.6587 157.964 37.36 158.177 36.976C158.39 36.5813 158.497 36.112 158.497 35.568Z" fill="white"/>
<rect x="20" y="62.8826" width="48" height="48" rx="10" fill="url(#paint1_linear_1_329)"/>
<rect x="20" y="62.8826" width="48" height="48" rx="10" fill="white"/>
<rect x="78" y="62.8826" width="48" height="48" rx="10" fill="url(#paint2_linear_1_329)"/>
<rect x="78" y="62.8826" width="48" height="48" rx="10" fill="white"/>
<rect x="136" y="62.8826" width="48" height="48" rx="10" fill="url(#paint3_linear_1_329)"/>
<rect x="136" y="62.8826" width="48" height="48" rx="10" fill="white"/>
<rect x="194" y="62.8826" width="48" height="48" rx="10" fill="url(#paint4_linear_1_329)"/>
<rect x="194" y="62.8826" width="48" height="48" rx="10" fill="white"/>
<path d="M38.8181 100.24L39.3088 97.1226L38.2156 97.0973H32.9955L36.6232 74.095C36.634 74.0247 36.6697 73.9607 36.7238 73.9145C36.7779 73.8684 36.8468 73.8432 36.9179 73.8435H45.7198C48.6419 73.8435 50.6584 74.4516 51.7113 75.6518C52.2048 76.2148 52.5192 76.8032 52.6712 77.4506C52.8307 78.13 52.8335 78.9417 52.6778 79.9317L52.6665 80.0039V80.6383L53.1601 80.9179C53.5369 81.1088 53.8756 81.367 54.1595 81.6799C54.5817 82.1612 54.8548 82.7731 54.9702 83.4984C55.0894 84.2444 55.05 85.1321 54.8548 86.1371C54.6296 87.2932 54.2655 88.3001 53.7738 89.1239C53.34 89.862 52.7566 90.5013 52.0613 91.0007C51.4082 91.4642 50.6321 91.8161 49.7548 92.0413C48.9046 92.2628 47.9353 92.3745 46.8721 92.3745H46.1871C45.6972 92.3745 45.2215 92.5509 44.848 92.8671C44.4751 93.1867 44.2277 93.6283 44.1499 94.1133L44.0983 94.3938L43.2312 99.888L43.1918 100.09C43.1815 100.154 43.1637 100.185 43.1374 100.207C43.1119 100.228 43.0802 100.239 43.0473 100.24H38.8181Z" fill="#253B80"/>
<path d="M53.6275 80.0771C53.6012 80.2451 53.5712 80.4168 53.5374 80.5932C52.3766 86.5528 48.4054 88.6116 43.3335 88.6116H40.7512C40.1309 88.6116 39.6082 89.062 39.5116 89.6738L38.1894 98.0591L37.815 100.436C37.8001 100.53 37.8058 100.627 37.8317 100.718C37.8576 100.81 37.9031 100.896 37.9651 100.968C38.0271 101.041 38.1041 101.099 38.1907 101.139C38.2774 101.179 38.3717 101.2 38.4672 101.2H43.0473C43.5897 101.2 44.0505 100.806 44.1359 100.271L44.1809 100.038L45.0433 94.5655L45.0986 94.2652C45.1831 93.7285 45.6448 93.3344 46.1871 93.3344H46.8721C51.3097 93.3344 54.7835 91.5327 55.7988 86.3191C56.223 84.1412 56.0034 82.3226 54.8811 81.0436C54.5254 80.648 54.1006 80.3204 53.6275 80.0771V80.0771Z" fill="#179BD7"/>
<path d="M52.4132 79.5929C52.0426 79.4857 51.6656 79.402 51.2844 79.3424C50.5312 79.2266 49.7699 79.1711 49.0079 79.1763H42.109C41.8465 79.1761 41.5925 79.2698 41.393 79.4405C41.1936 79.6112 41.0618 79.8477 41.0214 80.1071L39.5538 89.4026L39.5116 89.6738C39.5573 89.3779 39.7074 89.1081 39.9348 88.9133C40.1622 88.7184 40.4518 88.6114 40.7512 88.6116H43.3336C48.4055 88.6116 52.3766 86.5519 53.5374 80.5932C53.5721 80.4168 53.6012 80.2451 53.6275 80.0771C53.3212 79.9165 53.002 79.7818 52.6732 79.6745C52.587 79.6459 52.5003 79.6187 52.4132 79.5929V79.5929Z" fill="#222D65"/>
<path d="M41.0214 80.1071C41.0614 79.8476 41.1931 79.6111 41.3927 79.4404C41.5922 79.2698 41.8464 79.1764 42.109 79.1772H49.0079C49.8252 79.1772 50.5881 79.2307 51.2843 79.3433C51.7555 79.4174 52.2202 79.5281 52.6741 79.6745C53.0166 79.7881 53.3347 79.9223 53.6284 80.0771C53.9737 77.8748 53.6256 76.3752 52.4348 75.0174C51.122 73.5226 48.7526 72.8826 45.7207 72.8826H36.9188C36.2995 72.8826 35.7712 73.333 35.6755 73.9458L32.0093 97.1845C31.9922 97.2924 31.9987 97.4027 32.0283 97.5079C32.058 97.613 32.11 97.7105 32.1809 97.7936C32.2518 97.8767 32.3398 97.9435 32.439 97.9893C32.5382 98.0351 32.6461 98.0589 32.7553 98.0591H38.1894L39.5538 89.4026L41.0214 80.1071Z" fill="#253B80"/>
<g clip-path="url(#clip0_1_329)">
<path d="M106.499 74.8826C105.219 74.9711 103.724 75.7901 102.852 76.8566C102.057 77.8241 101.403 79.2611 101.658 80.6576C103.056 80.7011 104.501 79.8626 105.338 78.7781C106.121 77.7686 106.713 76.3406 106.499 74.8826Z" fill="#B9B9B9"/>
<path d="M111.555 82.9346C110.327 81.3941 108.6 80.5001 106.97 80.5001C104.817 80.5001 103.907 81.5306 102.411 81.5306C100.87 81.5306 99.698 80.5031 97.8365 80.5031C96.008 80.5031 94.061 81.6206 92.8266 83.5316C91.0911 86.2226 91.3881 91.2821 94.2005 95.5915C95.207 97.1335 96.551 98.8675 98.309 98.8825C99.8735 98.8975 100.315 97.879 102.434 97.8685C104.553 97.8565 104.955 98.896 106.517 98.8795C108.276 98.866 109.694 96.9445 110.7 95.4025C111.422 94.297 111.69 93.7405 112.25 92.4926C108.18 90.9431 107.528 85.1561 111.555 82.9346Z" fill="#B9B9B9"/>
</g>
<path d="M155.733 91.4794L157.359 82.3365H159.898L158.324 91.4794H155.733Z" fill="#3C58BF"/>
<path d="M155.733 91.4794L157.816 82.3365H159.898L158.324 91.4794H155.733Z" fill="#293688"/>
<path d="M167.517 82.4382C167.009 82.235 166.197 82.0319 165.181 82.0319C162.641 82.0319 160.813 83.3017 160.813 85.1303C160.813 86.5017 162.082 87.2128 163.098 87.67C164.114 88.1271 164.419 88.4319 164.419 88.8382C164.419 89.4477 163.606 89.7525 162.895 89.7525C161.879 89.7525 161.321 89.6001 160.457 89.2446L160.102 89.0922L159.746 91.1747C160.355 91.4287 161.473 91.6827 162.641 91.6827C165.333 91.6827 167.111 90.4128 167.111 88.4827C167.111 87.416 166.451 86.6033 164.927 85.943C164.013 85.4858 163.454 85.2319 163.454 84.7747C163.454 84.3684 163.911 83.962 164.927 83.962C165.79 83.962 166.4 84.1144 166.857 84.3176L167.111 84.4192L167.517 82.4382Z" fill="#3C58BF"/>
<path d="M167.517 82.4382C167.009 82.235 166.197 82.0319 165.181 82.0319C162.641 82.0319 161.27 83.3017 161.27 85.1303C161.27 86.5017 162.082 87.2128 163.098 87.67C164.114 88.1271 164.419 88.4319 164.419 88.8382C164.419 89.4477 163.606 89.7525 162.895 89.7525C161.879 89.7525 161.321 89.6001 160.457 89.2446L160.102 89.0922L159.746 91.1747C160.355 91.4287 161.473 91.6827 162.641 91.6827C165.333 91.6827 167.111 90.4128 167.111 88.4827C167.111 87.416 166.451 86.6033 164.927 85.943C164.013 85.4858 163.454 85.2319 163.454 84.7747C163.454 84.3684 163.911 83.962 164.927 83.962C165.79 83.962 166.4 84.1144 166.857 84.3176L167.111 84.4192L167.517 82.4382Z" fill="#293688"/>
<path d="M171.886 82.3365C171.276 82.3365 170.819 82.3873 170.565 82.9969L166.755 91.4794H169.498L170.006 89.9556H173.257L173.562 91.4794H176L173.867 82.3365H171.886V82.3365ZM170.717 88.4318C170.87 87.9746 171.733 85.7397 171.733 85.7397C171.733 85.7397 171.936 85.181 172.089 84.8254L172.241 85.6889C172.241 85.6889 172.749 87.9746 172.851 88.4826H170.717V88.4318Z" fill="#3C58BF"/>
<path d="M172.495 82.3365C171.886 82.3365 171.428 82.3873 171.175 82.9969L166.755 91.4794H169.498L170.006 89.9556H173.257L173.562 91.4794H176L173.867 82.3365H172.495V82.3365ZM170.717 88.4318C170.921 87.9239 171.733 85.7397 171.733 85.7397C171.733 85.7397 171.936 85.181 172.089 84.8254L172.241 85.6889C172.241 85.6889 172.749 87.9746 172.851 88.4826H170.717V88.4318Z" fill="#293688"/>
<path d="M151.06 88.7366L150.806 87.4159C150.349 85.8921 148.876 84.2159 147.251 83.4032L149.536 91.5302H152.279L156.394 82.3874H153.651L151.06 88.7366Z" fill="#3C58BF"/>
<path d="M151.06 88.7366L150.806 87.4159C150.349 85.8921 148.876 84.2159 147.251 83.4032L149.536 91.5302H152.279L156.394 82.3874H154.159L151.06 88.7366Z" fill="#293688"/>
<path d="M144 82.3365L144.457 82.4381C147.708 83.2 149.943 85.1302 150.806 87.4159L149.892 83.0985C149.74 82.4889 149.283 82.3365 148.724 82.3365H144V82.3365Z" fill="#FFBC00"/>
<path d="M144 82.3365C147.251 83.0985 149.943 85.0794 150.806 87.3651L149.943 83.7588C149.79 83.1492 149.283 82.7937 148.724 82.7937L144 82.3365Z" fill="#F7981D"/>
<path d="M144 82.3365C147.251 83.0985 149.943 85.0794 150.806 87.3651L150.197 85.3842C150.044 84.7746 149.841 84.1651 149.13 83.9112L144 82.3365Z" fill="#ED7C00"/>
<path d="M153.6 88.4318L151.873 86.7048L151.06 88.635L150.857 87.3651C150.4 85.8413 148.927 84.1651 147.302 83.3524L149.587 91.4794H152.33L153.6 88.4318Z" fill="#051244"/>
<path d="M158.324 91.4794L156.14 89.2444L155.733 91.4794H158.324Z" fill="#051244"/>
<path d="M164.165 88.3301C164.368 88.5333 164.47 88.6857 164.419 88.8889C164.419 89.4984 163.606 89.8032 162.895 89.8032C161.879 89.8032 161.321 89.6508 160.457 89.2952L160.102 89.1428L159.746 91.2254C160.356 91.4793 161.473 91.7333 162.641 91.7333C164.267 91.7333 165.587 91.2762 166.349 90.4635L164.165 88.3301Z" fill="#051244"/>
<path d="M167.111 91.4794H169.499L170.006 89.9556H173.257L173.562 91.4794H176L175.137 87.7715L172.089 84.8254L172.241 85.6381C172.241 85.6381 172.749 87.9239 172.851 88.4318H170.718C170.921 87.9239 171.733 85.7397 171.733 85.7397C171.733 85.7397 171.937 85.181 172.089 84.8254" fill="#051244"/>
<path d="M207.477 83.6192C207.471 83.5649 207.423 83.5408 207.386 83.5408C207.35 83.5408 206.56 83.4805 206.56 83.4805C206.56 83.4805 206.011 82.9315 205.945 82.8772C205.884 82.8169 205.77 82.835 205.721 82.8471C205.715 82.8471 205.601 82.8833 205.414 82.9436C205.227 82.4067 204.907 81.9181 204.334 81.9181H204.28C204.123 81.713 203.918 81.6165 203.749 81.6165C202.422 81.6165 201.782 83.2754 201.583 84.1199C201.065 84.2827 200.697 84.3913 200.654 84.4094C200.365 84.4999 200.359 84.5059 200.323 84.7774C200.292 84.9825 199.538 90.8156 199.538 90.8156L205.408 91.9135L208.593 91.2258C208.599 91.2137 207.483 83.6735 207.477 83.6192V83.6192ZM205.088 83.028C204.943 83.0703 204.768 83.1246 204.593 83.1849V83.0763C204.593 82.7506 204.551 82.4852 204.473 82.274C204.774 82.3102 204.961 82.642 205.088 83.028ZM204.105 82.3404C204.183 82.5455 204.238 82.835 204.238 83.2331V83.2935C203.912 83.396 203.568 83.4986 203.212 83.6132C203.411 82.8531 203.791 82.4791 204.105 82.3404ZM203.719 81.9664C203.779 81.9664 203.839 81.9905 203.888 82.0267C203.459 82.2258 203.007 82.7264 202.82 83.7398C202.536 83.8303 202.265 83.9088 202.006 83.9932C202.223 83.2211 202.766 81.9664 203.719 81.9664Z" fill="#95BF47"/>
<path d="M207.386 83.5288C207.35 83.5288 206.56 83.4685 206.56 83.4685C206.56 83.4685 206.011 82.9195 205.945 82.8652C205.921 82.8411 205.89 82.829 205.866 82.829L205.426 91.9136L208.611 91.2259C208.611 91.2259 207.495 83.6736 207.489 83.6193C207.465 83.565 207.423 83.5408 207.386 83.5288V83.5288Z" fill="#5E8E3E"/>
<path d="M204.334 85.2901L203.948 86.4543C203.948 86.4543 203.598 86.2673 203.182 86.2673C202.561 86.2673 202.53 86.6594 202.53 86.756C202.53 87.2868 203.918 87.4919 203.918 88.7405C203.918 89.7238 203.297 90.3572 202.458 90.3572C201.445 90.3572 200.938 89.7298 200.938 89.7298L201.209 88.8371C201.209 88.8371 201.74 89.2955 202.187 89.2955C202.482 89.2955 202.603 89.0663 202.603 88.8974C202.603 88.2037 201.469 88.1735 201.469 87.0274C201.469 86.0683 202.156 85.1393 203.55 85.1393C204.069 85.1333 204.334 85.2901 204.334 85.2901V85.2901Z" fill="white"/>
<path d="M212.309 87.4798C211.989 87.3109 211.826 87.1601 211.826 86.961C211.826 86.7077 212.055 86.5448 212.411 86.5448C212.827 86.5448 213.195 86.7137 213.195 86.7137L213.485 85.827C213.485 85.827 213.219 85.6219 212.435 85.6219C211.343 85.6219 210.583 86.2492 210.583 87.1299C210.583 87.6306 210.939 88.0106 211.41 88.2821C211.796 88.4932 211.929 88.65 211.929 88.8793C211.929 89.1145 211.736 89.3075 211.38 89.3075C210.855 89.3075 210.354 89.0361 210.354 89.0361L210.047 89.9228C210.047 89.9228 210.505 90.2305 211.277 90.2305C212.399 90.2305 213.213 89.6755 213.213 88.6802C213.201 88.1373 212.797 87.7633 212.309 87.4798V87.4798ZM216.785 85.6098C216.23 85.6098 215.795 85.8752 215.463 86.2734L215.451 86.2673L215.934 83.7579H214.685L213.467 90.1521H214.715L215.132 87.9684C215.295 87.142 215.723 86.6293 216.121 86.6293C216.404 86.6293 216.513 86.8223 216.513 87.0937C216.513 87.2626 216.501 87.4798 216.459 87.6487L215.988 90.1521H217.237L217.726 87.5703C217.78 87.2988 217.816 86.9731 217.816 86.7499C217.81 86.0321 217.442 85.6098 216.785 85.6098V85.6098ZM220.639 85.6098C219.131 85.6098 218.136 86.9671 218.136 88.4811C218.136 89.4463 218.733 90.2305 219.855 90.2305C221.333 90.2305 222.328 88.9094 222.328 87.3592C222.334 86.4604 221.815 85.6098 220.639 85.6098V85.6098ZM220.024 89.2774C219.596 89.2774 219.421 88.9155 219.421 88.457C219.421 87.7392 219.789 86.575 220.47 86.575C220.911 86.575 221.061 86.961 221.061 87.329C221.061 88.0951 220.681 89.2774 220.024 89.2774ZM225.531 85.6098C224.687 85.6098 224.21 86.3578 224.21 86.3578H224.198L224.27 85.6882H223.161C223.106 86.1406 223.004 86.8344 222.907 87.3471L222.045 91.9255H223.293L223.643 90.0736H223.673C223.673 90.0736 223.933 90.2365 224.403 90.2365C225.875 90.2365 226.834 88.7285 226.834 87.2083C226.828 86.3638 226.448 85.6098 225.531 85.6098V85.6098ZM224.337 89.2895C224.011 89.2895 223.818 89.1025 223.818 89.1025L224.023 87.9382C224.168 87.1541 224.578 86.6413 225.012 86.6413C225.399 86.6413 225.513 86.9972 225.513 87.329C225.519 88.1373 225.037 89.2895 224.337 89.2895V89.2895ZM228.614 83.8183C228.216 83.8183 227.896 84.138 227.896 84.5421C227.896 84.9101 228.131 85.1695 228.487 85.1695H228.499C228.891 85.1695 229.223 84.904 229.229 84.4456C229.235 84.0776 228.988 83.8183 228.614 83.8183V83.8183ZM226.864 90.146H228.113L228.958 85.7063H227.703L226.864 90.146ZM232.143 85.7003H231.274L231.316 85.4952C231.389 85.0669 231.642 84.6929 232.064 84.6929C232.287 84.6929 232.462 84.7593 232.462 84.7593L232.704 83.776C232.704 83.776 232.492 83.6674 232.022 83.6674C231.582 83.6674 231.135 83.7941 230.797 84.0837C230.369 84.4456 230.17 84.9704 230.073 85.5012L230.037 85.7063H229.452L229.265 86.6534H229.85L229.187 90.1521H230.435L231.099 86.6534H231.962L232.143 85.7003ZM235.153 85.7063C235.153 85.7063 234.368 87.6789 234.025 88.7586H234.013C233.988 88.4088 233.705 85.7063 233.705 85.7063H232.39L233.144 89.772C233.156 89.8625 233.15 89.9168 233.114 89.9771C232.969 90.2606 232.722 90.5321 232.432 90.7311C232.197 90.9 231.931 91.0147 231.72 91.087L232.07 92.1487C232.324 92.0944 232.854 91.8833 233.295 91.4671C233.862 90.9362 234.393 90.1098 234.935 88.9878L236.462 85.7003H235.153V85.7063Z" fill="black"/>
<defs>
<filter id="filter0_b_1_329" x="-10" y="-9.11737" width="282" height="160" filterUnits="userSpaceOnUse" color-interpolation-filters="sRGB">
<feFlood flood-opacity="0" result="BackgroundImageFix"/>
<feGaussianBlur in="BackgroundImageFix" stdDeviation="5"/>
<feComposite in2="SourceAlpha" operator="in" result="effect1_backgroundBlur_1_329"/>
<feBlend mode="normal" in="SourceGraphic" in2="effect1_backgroundBlur_1_329" result="shape"/>
</filter>
<linearGradient id="paint0_linear_1_329" x1="-481.5" y1="-495.617" x2="-121.712" y2="315.869" gradientUnits="userSpaceOnUse">
<stop stop-color="white"/>
<stop offset="0.906032" stop-color="#14101D"/>
</linearGradient>
<linearGradient id="paint1_linear_1_329" x1="20" y1="86.8826" x2="68" y2="86.8826" gradientUnits="userSpaceOnUse">
<stop stop-color="#00F5A0"/>
<stop offset="1" stop-color="#00D9F5"/>
</linearGradient>
<linearGradient id="paint2_linear_1_329" x1="78" y1="86.8826" x2="126" y2="86.8826" gradientUnits="userSpaceOnUse">
<stop stop-color="#00F5A0"/>
<stop offset="1" stop-color="#00D9F5"/>
</linearGradient>
<linearGradient id="paint3_linear_1_329" x1="136" y1="86.8826" x2="184" y2="86.8826" gradientUnits="userSpaceOnUse">
<stop stop-color="#00F5A0"/>
<stop offset="1" stop-color="#00D9F5"/>
</linearGradient>
<linearGradient id="paint4_linear_1_329" x1="194" y1="86.8826" x2="242" y2="86.8826" gradientUnits="userSpaceOnUse">
<stop stop-color="#00F5A0"/>
<stop offset="1" stop-color="#00D9F5"/>
</linearGradient>
<clipPath id="clip0_1_329">
<rect width="24" height="24" fill="white" transform="translate(90 74.8826)"/>
</clipPath>
</defs>
</svg>
