<svg width="287" height="276" viewBox="0 0 287 276" fill="none" xmlns="http://www.w3.org/2000/svg">
<g filter="url(#filter0_d_118119_96)">
<rect x="26" y="24" width="227" height="216" rx="10" fill="url(#paint0_linear_118119_96)"/>
</g>
<path fill-rule="evenodd" clip-rule="evenodd" d="M230.511 128H167.638C165.981 128 164.638 129.343 164.638 131V156C164.638 157.657 165.981 159 167.638 159H230.511C232.168 159 233.511 157.657 233.511 156V131C233.511 129.343 232.168 128 230.511 128ZM167.638 127C165.429 127 163.638 128.791 163.638 131V156C163.638 158.209 165.429 160 167.638 160H230.511C232.72 160 234.511 158.209 234.511 156V131C234.511 128.791 232.72 127 230.511 127H167.638Z" fill="url(#paint1_linear_118119_96)"/>
<rect x="46.543" y="184" width="187.968" height="33" rx="10" fill="url(#paint2_linear_118119_96)"/>
<circle cx="74.543" cy="72" r="28" fill="white"/>
<path d="M128.207 55.432C128.207 56.328 127.991 57.168 127.559 57.952C127.143 58.736 126.479 59.368 125.567 59.848C124.671 60.328 123.535 60.568 122.159 60.568H119.351V67H115.991V50.248H122.159C123.455 50.248 124.559 50.472 125.471 50.92C126.383 51.368 127.063 51.984 127.511 52.768C127.975 53.552 128.207 54.44 128.207 55.432ZM122.015 57.856C122.943 57.856 123.631 57.648 124.079 57.232C124.527 56.8 124.751 56.2 124.751 55.432C124.751 53.8 123.839 52.984 122.015 52.984H119.351V57.856H122.015ZM129.968 60.304C129.968 58.96 130.232 57.768 130.76 56.728C131.304 55.688 132.032 54.888 132.944 54.328C133.872 53.768 134.904 53.488 136.04 53.488C137.032 53.488 137.896 53.688 138.632 54.088C139.384 54.488 139.984 54.992 140.432 55.6V53.704H143.816V67H140.432V65.056C140 65.68 139.4 66.2 138.632 66.616C137.88 67.016 137.008 67.216 136.016 67.216C134.896 67.216 133.872 66.928 132.944 66.352C132.032 65.776 131.304 64.968 130.76 63.928C130.232 62.872 129.968 61.664 129.968 60.304ZM140.432 60.352C140.432 59.536 140.272 58.84 139.952 58.264C139.632 57.672 139.2 57.224 138.656 56.92C138.112 56.6 137.528 56.44 136.904 56.44C136.28 56.44 135.704 56.592 135.176 56.896C134.648 57.2 134.216 57.648 133.88 58.24C133.56 58.816 133.4 59.504 133.4 60.304C133.4 61.104 133.56 61.808 133.88 62.416C134.216 63.008 134.648 63.464 135.176 63.784C135.72 64.104 136.296 64.264 136.904 64.264C137.528 64.264 138.112 64.112 138.656 63.808C139.2 63.488 139.632 63.04 139.952 62.464C140.272 61.872 140.432 61.168 140.432 60.352ZM160.058 53.704L151.826 73.288H148.25L151.13 66.664L145.802 53.704H149.57L153.002 62.992L156.482 53.704H160.058ZM165.469 55.624C165.901 55.016 166.493 54.512 167.245 54.112C168.013 53.696 168.885 53.488 169.861 53.488C170.997 53.488 172.021 53.768 172.933 54.328C173.861 54.888 174.589 55.688 175.117 56.728C175.661 57.752 175.933 58.944 175.933 60.304C175.933 61.664 175.661 62.872 175.117 63.928C174.589 64.968 173.861 65.776 172.933 66.352C172.021 66.928 170.997 67.216 169.861 67.216C168.885 67.216 168.021 67.016 167.269 66.616C166.533 66.216 165.933 65.712 165.469 65.104V73.336H162.109V53.704H165.469V55.624ZM172.501 60.304C172.501 59.504 172.333 58.816 171.997 58.24C171.677 57.648 171.245 57.2 170.701 56.896C170.173 56.592 169.597 56.44 168.973 56.44C168.365 56.44 167.789 56.6 167.245 56.92C166.717 57.224 166.285 57.672 165.949 58.264C165.629 58.856 165.469 59.552 165.469 60.352C165.469 61.152 165.629 61.848 165.949 62.44C166.285 63.032 166.717 63.488 167.245 63.808C167.789 64.112 168.365 64.264 168.973 64.264C169.597 64.264 170.173 64.104 170.701 63.784C171.245 63.464 171.677 63.008 171.997 62.416C172.333 61.824 172.501 61.12 172.501 60.304ZM177.751 60.304C177.751 58.96 178.015 57.768 178.543 56.728C179.087 55.688 179.815 54.888 180.727 54.328C181.655 53.768 182.687 53.488 183.823 53.488C184.815 53.488 185.679 53.688 186.415 54.088C187.167 54.488 187.767 54.992 188.215 55.6V53.704H191.599V67H188.215V65.056C187.783 65.68 187.183 66.2 186.415 66.616C185.663 67.016 184.791 67.216 183.799 67.216C182.679 67.216 181.655 66.928 180.727 66.352C179.815 65.776 179.087 64.968 178.543 63.928C178.015 62.872 177.751 61.664 177.751 60.304ZM188.215 60.352C188.215 59.536 188.055 58.84 187.735 58.264C187.415 57.672 186.983 57.224 186.439 56.92C185.895 56.6 185.311 56.44 184.687 56.44C184.063 56.44 183.487 56.592 182.959 56.896C182.431 57.2 181.999 57.648 181.663 58.24C181.343 58.816 181.183 59.504 181.183 60.304C181.183 61.104 181.343 61.808 181.663 62.416C181.999 63.008 182.431 63.464 182.959 63.784C183.503 64.104 184.079 64.264 184.687 64.264C185.311 64.264 185.895 64.112 186.439 63.808C186.983 63.488 187.415 63.04 187.735 62.464C188.055 61.872 188.215 61.168 188.215 60.352ZM198.481 49.24V67H195.121V49.24H198.481Z" fill="white"/>
<path d="M121.009 83.456C122.041 83.456 122.893 83.712 123.565 84.224C124.237 84.728 124.701 85.42 124.957 86.3H123.805C123.589 85.74 123.241 85.296 122.761 84.968C122.281 84.632 121.693 84.464 120.997 84.464C120.445 84.464 119.949 84.6 119.509 84.872C119.077 85.136 118.733 85.52 118.477 86.024C118.229 86.52 118.105 87.104 118.105 87.776C118.105 88.44 118.229 89.02 118.477 89.516C118.733 90.012 119.077 90.396 119.509 90.668C119.949 90.932 120.445 91.064 120.997 91.064C121.693 91.064 122.281 90.9 122.761 90.572C123.241 90.236 123.589 89.788 123.805 89.228H124.957C124.701 90.108 124.237 90.804 123.565 91.316C122.893 91.82 122.041 92.072 121.009 92.072C120.217 92.072 119.517 91.892 118.909 91.532C118.301 91.164 117.825 90.656 117.481 90.008C117.145 89.352 116.977 88.608 116.977 87.776C116.977 86.936 117.145 86.188 117.481 85.532C117.825 84.876 118.301 84.368 118.909 84.008C119.517 83.64 120.217 83.456 121.009 83.456ZM130.006 85.304C130.774 85.304 131.394 85.552 131.866 86.048C132.338 86.536 132.574 87.244 132.574 88.172V92H131.482V88.268C131.482 87.612 131.314 87.108 130.978 86.756C130.642 86.404 130.186 86.228 129.61 86.228C129.01 86.228 128.53 86.424 128.17 86.816C127.81 87.2 127.63 87.764 127.63 88.508V92H126.538V83.12H127.63V86.972C127.798 86.436 128.094 86.024 128.518 85.736C128.95 85.448 129.446 85.304 130.006 85.304ZM140.428 88.34C140.428 88.572 140.412 88.772 140.38 88.94H135.112C135.136 89.692 135.348 90.256 135.748 90.632C136.156 91.008 136.652 91.196 137.236 91.196C137.764 91.196 138.204 91.064 138.556 90.8C138.916 90.528 139.136 90.168 139.216 89.72H140.38C140.3 90.176 140.12 90.584 139.84 90.944C139.568 91.304 139.212 91.584 138.772 91.784C138.332 91.984 137.836 92.084 137.284 92.084C136.652 92.084 136.092 91.948 135.604 91.676C135.116 91.404 134.732 91.016 134.452 90.512C134.18 90 134.044 89.4 134.044 88.712C134.044 88.024 134.18 87.424 134.452 86.912C134.732 86.4 135.116 86.008 135.604 85.736C136.092 85.464 136.652 85.328 137.284 85.328C137.924 85.328 138.48 85.464 138.952 85.736C139.432 86.008 139.796 86.372 140.044 86.828C140.3 87.284 140.428 87.788 140.428 88.34ZM139.324 88.412C139.348 87.924 139.268 87.516 139.084 87.188C138.9 86.86 138.648 86.616 138.328 86.456C138.008 86.296 137.66 86.216 137.284 86.216C136.684 86.216 136.18 86.404 135.772 86.78C135.364 87.148 135.144 87.692 135.112 88.412H139.324ZM144.893 85.328C145.733 85.328 146.429 85.552 146.981 86C147.533 86.448 147.873 87.048 148.001 87.8H146.849C146.769 87.328 146.549 86.96 146.189 86.696C145.837 86.424 145.397 86.288 144.869 86.288C144.485 86.288 144.133 86.376 143.813 86.552C143.501 86.728 143.249 87 143.057 87.368C142.865 87.728 142.769 88.176 142.769 88.712C142.769 89.248 142.865 89.7 143.057 90.068C143.249 90.428 143.501 90.696 143.813 90.872C144.133 91.048 144.485 91.136 144.869 91.136C145.397 91.136 145.837 91 146.189 90.728C146.549 90.456 146.769 90.084 146.849 89.612H148.001C147.873 90.372 147.533 90.976 146.981 91.424C146.429 91.864 145.733 92.084 144.893 92.084C144.261 92.084 143.701 91.948 143.213 91.676C142.725 91.404 142.341 91.016 142.061 90.512C141.789 90 141.653 89.4 141.653 88.712C141.653 88.024 141.789 87.424 142.061 86.912C142.341 86.4 142.725 86.008 143.213 85.736C143.701 85.464 144.261 85.328 144.893 85.328ZM153.162 92L150.642 89.036V92H149.55V83.12H150.642V88.28L153.126 85.412H154.458L151.506 88.688L154.53 92H153.162ZM158.599 85.328C159.231 85.328 159.795 85.464 160.291 85.736C160.795 86.008 161.187 86.4 161.467 86.912C161.755 87.424 161.899 88.024 161.899 88.712C161.899 89.4 161.755 90 161.467 90.512C161.187 91.016 160.795 91.404 160.291 91.676C159.795 91.948 159.231 92.084 158.599 92.084C157.967 92.084 157.399 91.948 156.895 91.676C156.399 91.404 156.007 91.016 155.719 90.512C155.431 90 155.287 89.4 155.287 88.712C155.287 88.024 155.431 87.424 155.719 86.912C156.007 86.4 156.399 86.008 156.895 85.736C157.399 85.464 157.967 85.328 158.599 85.328ZM158.599 86.288C158.207 86.288 157.843 86.376 157.507 86.552C157.179 86.728 156.911 87 156.703 87.368C156.503 87.728 156.403 88.176 156.403 88.712C156.403 89.24 156.503 89.688 156.703 90.056C156.911 90.416 157.179 90.684 157.507 90.86C157.843 91.036 158.207 91.124 158.599 91.124C158.991 91.124 159.351 91.036 159.679 90.86C160.015 90.684 160.283 90.416 160.483 90.056C160.691 89.688 160.795 89.24 160.795 88.712C160.795 88.176 160.691 87.728 160.483 87.368C160.283 87 160.015 86.728 159.679 86.552C159.351 86.376 158.991 86.288 158.599 86.288ZM169.298 85.412V92H168.206V90.452C168.038 90.988 167.738 91.4 167.306 91.688C166.882 91.968 166.386 92.108 165.818 92.108C165.058 92.108 164.442 91.864 163.97 91.376C163.498 90.88 163.262 90.172 163.262 89.252V85.412H164.354V89.144C164.354 89.8 164.522 90.308 164.858 90.668C165.194 91.02 165.65 91.196 166.226 91.196C166.826 91.196 167.306 91.004 167.666 90.62C168.026 90.228 168.206 89.66 168.206 88.916V85.412H169.298ZM174.312 91.04V92H173.496C172.824 92 172.32 91.84 171.984 91.52C171.656 91.2 171.492 90.664 171.492 89.912V86.36H170.508V85.412H171.492V83.768H172.596V85.412H174.3V86.36H172.596V89.936C172.596 90.36 172.672 90.652 172.824 90.812C172.984 90.964 173.256 91.04 173.64 91.04H174.312Z" fill="white" fill-opacity="0.7"/>
<path d="M174.425 143.812C174.425 142.996 174.609 142.264 174.977 141.616C175.345 140.96 175.845 140.448 176.477 140.08C177.117 139.712 177.825 139.528 178.601 139.528C179.513 139.528 180.309 139.748 180.989 140.188C181.669 140.628 182.165 141.252 182.477 142.06H181.169C180.937 141.556 180.601 141.168 180.161 140.896C179.729 140.624 179.209 140.488 178.601 140.488C178.017 140.488 177.493 140.624 177.029 140.896C176.565 141.168 176.201 141.556 175.937 142.06C175.673 142.556 175.541 143.14 175.541 143.812C175.541 144.476 175.673 145.06 175.937 145.564C176.201 146.06 176.565 146.444 177.029 146.716C177.493 146.988 178.017 147.124 178.601 147.124C179.209 147.124 179.729 146.992 180.161 146.728C180.601 146.456 180.937 146.068 181.169 145.564H182.477C182.165 146.364 181.669 146.984 180.989 147.424C180.309 147.856 179.513 148.072 178.601 148.072C177.825 148.072 177.117 147.892 176.477 147.532C175.845 147.164 175.345 146.656 174.977 146.008C174.609 145.36 174.425 144.628 174.425 143.812ZM187.487 141.304C187.983 141.304 188.431 141.412 188.831 141.628C189.231 141.836 189.543 142.152 189.767 142.576C189.999 143 190.115 143.516 190.115 144.124V148H189.035V144.28C189.035 143.624 188.871 143.124 188.543 142.78C188.215 142.428 187.767 142.252 187.199 142.252C186.623 142.252 186.163 142.432 185.819 142.792C185.483 143.152 185.315 143.676 185.315 144.364V148H184.223V139.12H185.315V142.36C185.531 142.024 185.827 141.764 186.203 141.58C186.587 141.396 187.015 141.304 187.487 141.304ZM191.611 144.688C191.611 144.016 191.747 143.428 192.019 142.924C192.291 142.412 192.663 142.016 193.135 141.736C193.615 141.456 194.147 141.316 194.731 141.316C195.307 141.316 195.807 141.44 196.231 141.688C196.655 141.936 196.971 142.248 197.179 142.624V141.424H198.283V148H197.179V146.776C196.963 147.16 196.639 147.48 196.207 147.736C195.783 147.984 195.287 148.108 194.719 148.108C194.135 148.108 193.607 147.964 193.135 147.676C192.663 147.388 192.291 146.984 192.019 146.464C191.747 145.944 191.611 145.352 191.611 144.688ZM197.179 144.7C197.179 144.204 197.079 143.772 196.879 143.404C196.679 143.036 196.407 142.756 196.063 142.564C195.727 142.364 195.355 142.264 194.947 142.264C194.539 142.264 194.167 142.36 193.831 142.552C193.495 142.744 193.227 143.024 193.027 143.392C192.827 143.76 192.727 144.192 192.727 144.688C192.727 145.192 192.827 145.632 193.027 146.008C193.227 146.376 193.495 146.66 193.831 146.86C194.167 147.052 194.539 147.148 194.947 147.148C195.355 147.148 195.727 147.052 196.063 146.86C196.407 146.66 196.679 146.376 196.879 146.008C197.079 145.632 197.179 145.196 197.179 144.7ZM203.452 141.304C204.252 141.304 204.9 141.548 205.396 142.036C205.892 142.516 206.14 143.212 206.14 144.124V148H205.06V144.28C205.06 143.624 204.896 143.124 204.568 142.78C204.24 142.428 203.792 142.252 203.224 142.252C202.648 142.252 202.188 142.432 201.844 142.792C201.508 143.152 201.34 143.676 201.34 144.364V148H200.248V141.424H201.34V142.36C201.556 142.024 201.848 141.764 202.216 141.58C202.592 141.396 203.004 141.304 203.452 141.304ZM210.756 141.316C211.324 141.316 211.82 141.44 212.244 141.688C212.676 141.936 212.996 142.248 213.204 142.624V141.424H214.308V148.144C214.308 148.744 214.18 149.276 213.924 149.74C213.668 150.212 213.3 150.58 212.82 150.844C212.348 151.108 211.796 151.24 211.164 151.24C210.3 151.24 209.58 151.036 209.004 150.628C208.428 150.22 208.088 149.664 207.984 148.96H209.064C209.184 149.36 209.432 149.68 209.808 149.92C210.184 150.168 210.636 150.292 211.164 150.292C211.764 150.292 212.252 150.104 212.628 149.728C213.012 149.352 213.204 148.824 213.204 148.144V146.764C212.988 147.148 212.668 147.468 212.244 147.724C211.82 147.98 211.324 148.108 210.756 148.108C210.172 148.108 209.64 147.964 209.16 147.676C208.688 147.388 208.316 146.984 208.044 146.464C207.772 145.944 207.636 145.352 207.636 144.688C207.636 144.016 207.772 143.428 208.044 142.924C208.316 142.412 208.688 142.016 209.16 141.736C209.64 141.456 210.172 141.316 210.756 141.316ZM213.204 144.7C213.204 144.204 213.104 143.772 212.904 143.404C212.704 143.036 212.432 142.756 212.088 142.564C211.752 142.364 211.38 142.264 210.972 142.264C210.564 142.264 210.192 142.36 209.856 142.552C209.52 142.744 209.252 143.024 209.052 143.392C208.852 143.76 208.752 144.192 208.752 144.688C208.752 145.192 208.852 145.632 209.052 146.008C209.252 146.376 209.52 146.66 209.856 146.86C210.192 147.052 210.564 147.148 210.972 147.148C211.38 147.148 211.752 147.052 212.088 146.86C212.432 146.66 212.704 146.376 212.904 146.008C213.104 145.632 213.204 145.196 213.204 144.7ZM222.273 144.46C222.273 144.668 222.261 144.888 222.237 145.12H216.981C217.021 145.768 217.241 146.276 217.641 146.644C218.049 147.004 218.541 147.184 219.117 147.184C219.589 147.184 219.981 147.076 220.293 146.86C220.613 146.636 220.837 146.34 220.965 145.972H222.141C221.965 146.604 221.613 147.12 221.085 147.52C220.557 147.912 219.901 148.108 219.117 148.108C218.493 148.108 217.933 147.968 217.437 147.688C216.949 147.408 216.565 147.012 216.285 146.5C216.005 145.98 215.865 145.38 215.865 144.7C215.865 144.02 216.001 143.424 216.273 142.912C216.545 142.4 216.925 142.008 217.413 141.736C217.909 141.456 218.477 141.316 219.117 141.316C219.741 141.316 220.293 141.452 220.773 141.724C221.253 141.996 221.621 142.372 221.877 142.852C222.141 143.324 222.273 143.86 222.273 144.46ZM221.145 144.232C221.145 143.816 221.053 143.46 220.869 143.164C220.685 142.86 220.433 142.632 220.113 142.48C219.801 142.32 219.453 142.24 219.069 142.24C218.517 142.24 218.045 142.416 217.653 142.768C217.269 143.12 217.049 143.608 216.993 144.232H221.145Z" fill="url(#paint3_linear_118119_96)"/>
<path d="M103.404 196.66V205H102.024V198.748L99.6119 205H98.4119L95.9879 198.748V205H94.6199V196.66H96.2759L99.0359 203.32L101.748 196.66H103.404ZM107.822 198.304C108.422 198.304 108.934 198.452 109.358 198.748C109.782 199.044 110.082 199.436 110.258 199.924V198.388H111.626V205H110.258V203.464C110.082 203.952 109.782 204.344 109.358 204.64C108.934 204.936 108.422 205.084 107.822 205.084C107.246 205.084 106.73 204.948 106.274 204.676C105.826 204.404 105.474 204.012 105.218 203.5C104.962 202.988 104.834 202.384 104.834 201.688C104.834 201 104.962 200.4 105.218 199.888C105.474 199.376 105.826 198.984 106.274 198.712C106.73 198.44 107.246 198.304 107.822 198.304ZM108.242 199.504C107.634 199.504 107.146 199.7 106.778 200.092C106.418 200.476 106.238 201.008 106.238 201.688C106.238 202.368 106.418 202.904 106.778 203.296C107.146 203.68 107.634 203.872 108.242 203.872C108.626 203.872 108.97 203.784 109.274 203.608C109.578 203.424 109.818 203.168 109.994 202.84C110.17 202.512 110.258 202.128 110.258 201.688C110.258 201.256 110.17 200.876 109.994 200.548C109.818 200.212 109.578 199.956 109.274 199.78C108.97 199.596 108.626 199.504 108.242 199.504ZM117.131 205L114.755 202.06V205H113.387V196.12H114.755V201.208L117.107 198.388H118.751L115.871 201.676L118.823 205H117.131ZM125.979 201.376C125.979 201.6 125.963 201.796 125.931 201.964H120.843C120.867 202.644 121.055 203.148 121.407 203.476C121.759 203.804 122.195 203.968 122.715 203.968C123.171 203.968 123.555 203.852 123.867 203.62C124.187 203.388 124.383 203.08 124.455 202.696H125.919C125.831 203.16 125.647 203.572 125.367 203.932C125.087 204.292 124.723 204.576 124.275 204.784C123.827 204.984 123.327 205.084 122.775 205.084C122.135 205.084 121.567 204.948 121.071 204.676C120.583 204.404 120.199 204.012 119.919 203.5C119.639 202.988 119.499 202.384 119.499 201.688C119.499 201 119.639 200.4 119.919 199.888C120.199 199.376 120.583 198.984 121.071 198.712C121.567 198.44 122.135 198.304 122.775 198.304C123.423 198.304 123.987 198.44 124.467 198.712C124.955 198.976 125.327 199.344 125.583 199.816C125.847 200.28 125.979 200.8 125.979 201.376ZM124.599 201.34C124.615 200.908 124.539 200.548 124.371 200.26C124.211 199.964 123.987 199.748 123.699 199.612C123.419 199.468 123.111 199.396 122.775 199.396C122.239 199.396 121.791 199.56 121.431 199.888C121.071 200.216 120.875 200.7 120.843 201.34H124.599ZM131.721 201.712V205H130.353V196.528H133.233C134.209 196.528 134.941 196.76 135.429 197.224C135.925 197.688 136.173 198.324 136.173 199.132C136.173 199.932 135.921 200.564 135.417 201.028C134.913 201.484 134.185 201.712 133.233 201.712H131.721ZM133.089 200.596C134.217 200.596 134.781 200.108 134.781 199.132C134.781 198.652 134.645 198.288 134.373 198.04C134.109 197.784 133.681 197.656 133.089 197.656H131.721V200.596H133.089ZM140.144 198.304C140.744 198.304 141.256 198.452 141.68 198.748C142.104 199.044 142.404 199.436 142.58 199.924V198.388H143.948V205H142.58V203.464C142.404 203.952 142.104 204.344 141.68 204.64C141.256 204.936 140.744 205.084 140.144 205.084C139.568 205.084 139.052 204.948 138.596 204.676C138.148 204.404 137.796 204.012 137.54 203.5C137.284 202.988 137.156 202.384 137.156 201.688C137.156 201 137.284 200.4 137.54 199.888C137.796 199.376 138.148 198.984 138.596 198.712C139.052 198.44 139.568 198.304 140.144 198.304ZM140.564 199.504C139.956 199.504 139.468 199.7 139.1 200.092C138.74 200.476 138.56 201.008 138.56 201.688C138.56 202.368 138.74 202.904 139.1 203.296C139.468 203.68 139.956 203.872 140.564 203.872C140.948 203.872 141.292 203.784 141.596 203.608C141.9 203.424 142.14 203.168 142.316 202.84C142.492 202.512 142.58 202.128 142.58 201.688C142.58 201.256 142.492 200.876 142.316 200.548C142.14 200.212 141.9 199.956 141.596 199.78C141.292 199.596 140.948 199.504 140.564 199.504ZM146.49 198.388L148.47 203.248L150.306 198.388H151.83L147.834 208.144H146.31L147.738 204.844L144.954 198.388H146.49ZM161.117 198.28C161.901 198.28 162.525 198.528 162.989 199.024C163.461 199.52 163.697 200.228 163.697 201.148V205H162.329V201.292C162.329 200.716 162.185 200.272 161.897 199.96C161.609 199.64 161.213 199.48 160.709 199.48C160.173 199.48 159.745 199.652 159.425 199.996C159.113 200.332 158.957 200.828 158.957 201.484V205H157.589V201.292C157.589 200.716 157.445 200.272 157.157 199.96C156.869 199.64 156.473 199.48 155.969 199.48C155.433 199.48 155.005 199.652 154.685 199.996C154.373 200.332 154.217 200.828 154.217 201.484V205H152.849V198.388H154.217V199.768C154.385 199.288 154.665 198.92 155.057 198.664C155.449 198.408 155.909 198.28 156.437 198.28C156.989 198.28 157.465 198.416 157.865 198.688C158.273 198.96 158.569 199.352 158.753 199.864C158.945 199.368 159.253 198.98 159.677 198.7C160.101 198.42 160.581 198.28 161.117 198.28ZM171.559 201.376C171.559 201.6 171.543 201.796 171.511 201.964H166.423C166.447 202.644 166.635 203.148 166.987 203.476C167.339 203.804 167.775 203.968 168.295 203.968C168.751 203.968 169.135 203.852 169.447 203.62C169.767 203.388 169.963 203.08 170.035 202.696H171.499C171.411 203.16 171.227 203.572 170.947 203.932C170.667 204.292 170.303 204.576 169.855 204.784C169.407 204.984 168.907 205.084 168.355 205.084C167.715 205.084 167.147 204.948 166.651 204.676C166.163 204.404 165.779 204.012 165.499 203.5C165.219 202.988 165.079 202.384 165.079 201.688C165.079 201 165.219 200.4 165.499 199.888C165.779 199.376 166.163 198.984 166.651 198.712C167.147 198.44 167.715 198.304 168.355 198.304C169.003 198.304 169.567 198.44 170.047 198.712C170.535 198.976 170.907 199.344 171.163 199.816C171.427 200.28 171.559 200.8 171.559 201.376ZM170.179 201.34C170.195 200.908 170.119 200.548 169.951 200.26C169.791 199.964 169.567 199.748 169.279 199.612C168.999 199.468 168.691 199.396 168.355 199.396C167.819 199.396 167.371 199.56 167.011 199.888C166.651 200.216 166.455 200.7 166.423 201.34H170.179ZM176.696 198.28C177.464 198.28 178.08 198.528 178.544 199.024C179.008 199.52 179.24 200.228 179.24 201.148V205H177.872V201.292C177.872 200.7 177.72 200.244 177.416 199.924C177.112 199.596 176.696 199.432 176.168 199.432C175.624 199.432 175.188 199.608 174.86 199.96C174.532 200.304 174.368 200.812 174.368 201.484V205H173V198.388H174.368V199.84C174.544 199.344 174.84 198.96 175.256 198.688C175.672 198.416 176.152 198.28 176.696 198.28ZM184.283 203.812V205H183.443C182.739 205 182.203 204.832 181.835 204.496C181.475 204.152 181.295 203.584 181.295 202.792V199.552H180.347V198.388H181.295V196.744H182.675V198.388H184.271V199.552H182.675V202.816C182.675 203.192 182.743 203.452 182.879 203.596C183.023 203.74 183.271 203.812 183.623 203.812H184.283Z" fill="#00030D"/>
<path d="M46.951 128.524H49.243V136H50.335V128.524H52.615V127.636H46.951V128.524ZM60.3192 132.7C60.3192 130.624 58.8672 129.316 56.9952 129.316C55.1352 129.316 53.6712 130.624 53.6712 132.7C53.6712 134.788 55.0872 136.108 56.9472 136.108C58.8192 136.108 60.3192 134.788 60.3192 132.7ZM54.7872 132.7C54.7872 131.044 55.8312 130.264 56.9832 130.264C58.1112 130.264 59.2032 131.044 59.2032 132.7C59.2032 134.368 58.0872 135.148 56.9472 135.148C55.8072 135.148 54.7872 134.368 54.7872 132.7ZM62.1149 134.2C62.1149 135.52 62.7749 136 63.9389 136H64.9229V135.076H64.1189C63.4469 135.076 63.2069 134.848 63.2069 134.2V130.324H64.9229V129.424H63.2069V127.768H62.1149V129.424H61.2629V130.324H62.1149V134.2ZM65.958 132.688C65.958 134.728 67.314 136.108 69.066 136.108C70.278 136.108 71.13 135.484 71.526 134.776V136H72.63V129.424H71.526V130.624C71.142 129.94 70.302 129.316 69.078 129.316C67.314 129.316 65.958 130.636 65.958 132.688ZM71.526 132.7C71.526 134.248 70.494 135.148 69.294 135.148C68.094 135.148 67.074 134.236 67.074 132.688C67.074 131.14 68.094 130.264 69.294 130.264C70.494 130.264 71.526 131.176 71.526 132.7ZM74.5954 136H75.6874V127.12H74.5954V136Z" fill="white" fill-opacity="0.7"/>
<path d="M51.403 160.566H52.573V159.09C55.003 158.874 56.335 157.182 56.335 155.436C56.335 152.898 54.373 152.412 52.573 151.98V148.092C53.437 148.308 53.941 148.974 54.013 149.694H56.209C56.047 147.66 54.643 146.526 52.573 146.346V144.888H51.403V146.364C49.171 146.562 47.623 147.948 47.623 149.964C47.623 152.502 49.603 153.006 51.403 153.456V157.416C50.395 157.236 49.891 156.57 49.819 155.67H47.623C47.623 157.704 49.207 158.91 51.403 159.108V160.566ZM54.265 155.544C54.265 156.48 53.653 157.236 52.573 157.416V153.762C53.545 154.068 54.265 154.518 54.265 155.544ZM49.711 149.856C49.711 148.758 50.413 148.164 51.403 148.038V151.674C50.431 151.368 49.711 150.9 49.711 149.856ZM59.348 158.82H68.096V157.11H62.39C64.496 155.184 67.736 152.754 67.736 149.568C67.736 147.21 66.224 145.608 63.56 145.608C61.238 145.608 59.402 146.994 59.33 149.838H61.31C61.364 148.362 62.138 147.354 63.578 147.354C65.108 147.354 65.702 148.29 65.702 149.658C65.702 152.232 62.444 154.608 59.348 157.326V158.82ZM71.4827 159H73.5527V145.878H69.8087V147.75H71.4827V159ZM76.5516 152.268C76.5516 156.084 77.5596 158.964 81.2316 158.964C84.9036 158.964 85.9116 156.084 85.9116 152.268C85.9116 148.524 84.9036 145.644 81.2316 145.644C77.5596 145.644 76.5516 148.524 76.5516 152.268ZM83.8956 152.268C83.8956 154.842 83.6256 157.092 81.2316 157.092C78.8376 157.092 78.5676 154.842 78.5676 152.268C78.5676 149.82 78.8376 147.516 81.2316 147.516C83.6256 147.516 83.8956 149.82 83.8956 152.268Z" fill="white"/>
<path d="M69.3616 86.5863L69.8939 83.2158L68.7081 83.1884H63.0461L66.9809 58.3179C66.9926 58.2419 67.0314 58.1727 67.09 58.1228C67.1487 58.0729 67.2234 58.0456 67.3005 58.046H76.8476C80.017 58.046 82.2043 58.7035 83.3463 60.0011C83.8816 60.6099 84.2226 61.246 84.3875 61.9461C84.5605 62.6806 84.5636 63.5583 84.3946 64.6286L84.3824 64.7068V65.3926L84.9178 65.695C85.3265 65.9014 85.6938 66.1806 86.0017 66.5188C86.4597 67.0393 86.7559 67.7008 86.8811 68.4851C87.0104 69.2917 86.9676 70.2515 86.7559 71.3381C86.5116 72.588 86.1167 73.6767 85.5834 74.5675C85.1128 75.3655 84.4801 76.0567 83.7259 76.5967C83.0175 77.0979 82.1758 77.4783 81.2241 77.7218C80.302 77.9613 79.2506 78.082 78.0974 78.082H77.3544C76.8231 78.082 76.3071 78.2728 75.902 78.6147C75.4975 78.9602 75.2292 79.4377 75.1448 79.962L75.0888 80.2654L74.1483 86.2058L74.1056 86.4239C74.0944 86.4929 74.0751 86.5274 74.0466 86.5507C74.0189 86.5732 73.9845 86.5858 73.9488 86.5863H69.3616Z" fill="#253B80"/>
<path d="M85.4285 64.7701C85.4 64.9519 85.3675 65.1377 85.3308 65.3287C84.0724 71.779 79.767 74.0073 74.2683 74.0073H71.4686C70.7961 74.0073 70.2295 74.4948 70.1247 75.157L68.6913 84.2328L68.2853 86.8054C68.2692 86.9075 68.2754 87.0118 68.3034 87.1112C68.3315 87.2107 68.3809 87.3028 68.4481 87.3814C68.5153 87.46 68.5987 87.5231 68.6927 87.5664C68.7867 87.6097 68.8889 87.6321 68.9924 87.6321H73.958C74.546 87.6321 75.0456 87.2056 75.1381 86.6267L75.187 86.3748L76.1219 80.4516L76.1819 80.1266C76.2735 79.5456 76.774 79.1191 77.362 79.1191H78.1047C82.9157 79.1191 86.6819 77.169 87.7826 71.5261C88.2424 69.1688 88.0044 67.2005 86.7877 65.8162C86.402 65.388 85.9414 65.0335 85.4285 64.7701Z" fill="#179BD7"/>
<path d="M84.136 64.3246C83.7319 64.2086 83.3208 64.1181 82.9052 64.0536C82.084 63.9283 81.254 63.8683 80.4231 63.8739H72.9012C72.6149 63.8737 72.338 63.9751 72.1205 64.1598C71.903 64.3444 71.7593 64.6002 71.7154 64.8809L70.1152 74.9365L70.0692 75.2299C70.119 74.9097 70.2827 74.6179 70.5306 74.4071C70.7785 74.1964 71.0942 74.0806 71.4207 74.0808H74.2363C79.7663 74.0808 84.0961 71.8526 85.3617 65.4067C85.3996 65.2159 85.4313 65.0301 85.46 64.8484C85.126 64.6746 84.7779 64.529 84.4194 64.4129C84.3255 64.382 84.231 64.3525 84.136 64.3246Z" fill="#222D65"/>
<path d="M71.7902 64.8467C71.8336 64.5649 71.9766 64.3079 72.1932 64.1226C72.4097 63.9373 72.6855 63.8358 72.9705 63.8367H80.4573C81.3443 63.8367 82.1722 63.8948 82.9278 64.0171C83.4391 64.0975 83.9434 64.2178 84.436 64.3769C84.8077 64.5002 85.1529 64.646 85.4716 64.8141C85.8464 62.4221 85.4686 60.7934 84.1763 59.3187C82.7517 57.6951 80.1803 57 76.8901 57H67.338C66.6659 57 66.0926 57.4892 65.9887 58.1547L62.0101 83.3949C61.9916 83.5121 61.9986 83.6319 62.0308 83.7461C62.0629 83.8603 62.1194 83.9662 62.1963 84.0565C62.2733 84.1467 62.3688 84.2193 62.4764 84.269C62.584 84.3188 62.7011 84.3447 62.8197 84.3448H68.7169L70.1975 74.9428L71.7902 64.8467Z" fill="#253B80"/>
<defs>
<filter id="filter0_d_118119_96" x="0" y="0" width="287" height="276" filterUnits="userSpaceOnUse" color-interpolation-filters="sRGB">
<feFlood flood-opacity="0" result="BackgroundImageFix"/>
<feColorMatrix in="SourceAlpha" type="matrix" values="0 0 0 0 0 0 0 0 0 0 0 0 0 0 0 0 0 0 127 0" result="hardAlpha"/>
<feOffset dx="4" dy="6"/>
<feGaussianBlur stdDeviation="15"/>
<feComposite in2="hardAlpha" operator="out"/>
<feColorMatrix type="matrix" values="0 0 0 0 0.0753993 0 0 0 0 0.14181 0 0 0 0 0.179167 0 0 0 0.25 0"/>
<feBlend mode="normal" in2="BackgroundImageFix" result="effect1_dropShadow_118119_96"/>
<feBlend mode="normal" in="SourceGraphic" in2="effect1_dropShadow_118119_96" result="shape"/>
</filter>
<linearGradient id="paint0_linear_118119_96" x1="-695" y1="-248.5" x2="283.544" y2="136.612" gradientUnits="userSpaceOnUse">
<stop stop-color="white"/>
<stop offset="1" stop-color="#14101D"/>
</linearGradient>
<linearGradient id="paint1_linear_118119_96" x1="210.992" y1="97.3516" x2="222.466" y2="157.778" gradientUnits="userSpaceOnUse">
<stop offset="0.00887753" stop-color="#DEF9FA"/>
<stop offset="0.1723" stop-color="#BEF3F5"/>
<stop offset="0.4204" stop-color="#9DEDF0"/>
<stop offset="0.5512" stop-color="#7DE7EB"/>
<stop offset="0.7154" stop-color="#5CE1E6"/>
<stop offset="1" stop-color="#33BBCF"/>
</linearGradient>
<linearGradient id="paint2_linear_118119_96" x1="172.133" y1="154.352" x2="176.593" y2="216.638" gradientUnits="userSpaceOnUse">
<stop offset="0.00887753" stop-color="#DEF9FA"/>
<stop offset="0.1723" stop-color="#BEF3F5"/>
<stop offset="0.4204" stop-color="#9DEDF0"/>
<stop offset="0.5512" stop-color="#7DE7EB"/>
<stop offset="0.7154" stop-color="#5CE1E6"/>
<stop offset="1" stop-color="#33BBCF"/>
</linearGradient>
<linearGradient id="paint3_linear_118119_96" x1="207.537" y1="116.93" x2="212.959" y2="152.141" gradientUnits="userSpaceOnUse">
<stop offset="0.00887753" stop-color="#DEF9FA"/>
<stop offset="0.1723" stop-color="#BEF3F5"/>
<stop offset="0.4204" stop-color="#9DEDF0"/>
<stop offset="0.5512" stop-color="#7DE7EB"/>
<stop offset="0.7154" stop-color="#5CE1E6"/>
<stop offset="1" stop-color="#33BBCF"/>
</linearGradient>
</defs>
</svg>
