<svg width="384" height="114" viewBox="0 0 384 114" fill="none" xmlns="http://www.w3.org/2000/svg">
<g filter="url(#filter0_d_118120_98)">
<rect x="30" y="20" width="324" height="54" rx="10" fill="white"/>
</g>
<path d="M92.092 45.07C91.84 44.5847 91.49 44.2207 91.042 43.978C90.594 43.726 90.076 43.6 89.488 43.6C88.844 43.6 88.27 43.7447 87.766 44.034C87.262 44.3233 86.8653 44.734 86.576 45.266C86.296 45.798 86.156 46.414 86.156 47.114C86.156 47.814 86.296 48.4347 86.576 48.976C86.8653 49.508 87.262 49.9187 87.766 50.208C88.27 50.4973 88.844 50.642 89.488 50.642C90.356 50.642 91.0607 50.3993 91.602 49.914C92.1433 49.4287 92.4747 48.7707 92.596 47.94H88.942V46.666H94.304V47.912C94.2013 48.668 93.9307 49.3633 93.492 49.998C93.0627 50.6327 92.498 51.1413 91.798 51.524C91.1073 51.8973 90.3373 52.084 89.488 52.084C88.5733 52.084 87.738 51.874 86.982 51.454C86.226 51.0247 85.624 50.432 85.176 49.676C84.7373 48.92 84.518 48.066 84.518 47.114C84.518 46.162 84.7373 45.308 85.176 44.552C85.624 43.796 86.226 43.208 86.982 42.788C87.7473 42.3587 88.5827 42.144 89.488 42.144C90.524 42.144 91.4433 42.4007 92.246 42.914C93.058 43.418 93.646 44.1367 94.01 45.07H92.092ZM97.6141 45.406C97.8475 45.014 98.1555 44.7107 98.5381 44.496C98.9301 44.272 99.3921 44.16 99.9241 44.16V45.812H99.5181C98.8928 45.812 98.4168 45.9707 98.0901 46.288C97.7728 46.6053 97.6141 47.156 97.6141 47.94V52H96.0181V44.286H97.6141V45.406ZM108.601 47.954C108.601 48.2433 108.583 48.5047 108.545 48.738H102.651C102.698 49.354 102.927 49.8487 103.337 50.222C103.748 50.5953 104.252 50.782 104.849 50.782C105.708 50.782 106.315 50.4227 106.669 49.704H108.391C108.158 50.4133 107.733 50.9967 107.117 51.454C106.511 51.902 105.755 52.126 104.849 52.126C104.112 52.126 103.449 51.9627 102.861 51.636C102.283 51.3 101.825 50.8333 101.489 50.236C101.163 49.6293 100.999 48.9293 100.999 48.136C100.999 47.3427 101.158 46.6473 101.475 46.05C101.802 45.4433 102.255 44.9767 102.833 44.65C103.421 44.3233 104.093 44.16 104.849 44.16C105.577 44.16 106.226 44.3187 106.795 44.636C107.365 44.9533 107.808 45.4013 108.125 45.98C108.443 46.5493 108.601 47.2073 108.601 47.954ZM106.935 47.45C106.926 46.862 106.716 46.3907 106.305 46.036C105.895 45.6813 105.386 45.504 104.779 45.504C104.229 45.504 103.757 45.6813 103.365 46.036C102.973 46.3813 102.74 46.8527 102.665 47.45H106.935ZM109.78 48.108C109.78 47.3333 109.938 46.6473 110.256 46.05C110.582 45.4527 111.021 44.9907 111.572 44.664C112.132 44.328 112.748 44.16 113.42 44.16C114.026 44.16 114.554 44.2813 115.002 44.524C115.459 44.7573 115.823 45.0513 116.094 45.406V44.286H117.704V52H116.094V50.852C115.823 51.216 115.454 51.5193 114.988 51.762C114.521 52.0047 113.989 52.126 113.392 52.126C112.729 52.126 112.122 51.958 111.572 51.622C111.021 51.2767 110.582 50.8007 110.256 50.194C109.938 49.578 109.78 48.8827 109.78 48.108ZM116.094 48.136C116.094 47.604 115.982 47.142 115.758 46.75C115.543 46.358 115.258 46.0593 114.904 45.854C114.549 45.6487 114.166 45.546 113.756 45.546C113.345 45.546 112.962 45.6487 112.608 45.854C112.253 46.05 111.964 46.344 111.74 46.736C111.525 47.1187 111.418 47.576 111.418 48.108C111.418 48.64 111.525 49.1067 111.74 49.508C111.964 49.9093 112.253 50.2173 112.608 50.432C112.972 50.6373 113.354 50.74 113.756 50.74C114.166 50.74 114.549 50.6373 114.904 50.432C115.258 50.2267 115.543 49.928 115.758 49.536C115.982 49.1347 116.094 48.668 116.094 48.136ZM121.802 45.588V49.858C121.802 50.1473 121.867 50.3573 121.998 50.488C122.138 50.6093 122.371 50.67 122.698 50.67H123.678V52H122.418C121.699 52 121.149 51.832 120.766 51.496C120.383 51.16 120.192 50.614 120.192 49.858V45.588H119.282V44.286H120.192V42.368H121.802V44.286H123.678V45.588H121.802ZM127.291 42.27L127.109 49.06H125.779L125.597 42.27H127.291ZM126.493 52.098C126.204 52.098 125.961 52 125.765 51.804C125.569 51.608 125.471 51.3653 125.471 51.076C125.471 50.7867 125.569 50.544 125.765 50.348C125.961 50.152 126.204 50.054 126.493 50.054C126.773 50.054 127.011 50.152 127.207 50.348C127.403 50.544 127.501 50.7867 127.501 51.076C127.501 51.3653 127.403 51.608 127.207 51.804C127.011 52 126.773 52.098 126.493 52.098ZM140.914 42.27L137.694 48.472V52H136.098V48.472L132.864 42.27H134.642L136.896 47.044L139.15 42.27H140.914ZM145.666 52.126C144.938 52.126 144.28 51.9627 143.692 51.636C143.104 51.3 142.642 50.8333 142.306 50.236C141.97 49.6293 141.802 48.9293 141.802 48.136C141.802 47.352 141.975 46.6567 142.32 46.05C142.666 45.4433 143.137 44.9767 143.734 44.65C144.332 44.3233 144.999 44.16 145.736 44.16C146.474 44.16 147.141 44.3233 147.738 44.65C148.336 44.9767 148.807 45.4433 149.152 46.05C149.498 46.6567 149.67 47.352 149.67 48.136C149.67 48.92 149.493 49.6153 149.138 50.222C148.784 50.8287 148.298 51.3 147.682 51.636C147.076 51.9627 146.404 52.126 145.666 52.126ZM145.666 50.74C146.077 50.74 146.46 50.642 146.814 50.446C147.178 50.25 147.472 49.956 147.696 49.564C147.92 49.172 148.032 48.696 148.032 48.136C148.032 47.576 147.925 47.1047 147.71 46.722C147.496 46.33 147.211 46.036 146.856 45.84C146.502 45.644 146.119 45.546 145.708 45.546C145.298 45.546 144.915 45.644 144.56 45.84C144.215 46.036 143.94 46.33 143.734 46.722C143.529 47.1047 143.426 47.576 143.426 48.136C143.426 48.9667 143.636 49.6107 144.056 50.068C144.486 50.516 145.022 50.74 145.666 50.74ZM158.374 44.286V52H156.778V51.09C156.526 51.4073 156.195 51.6593 155.784 51.846C155.383 52.0233 154.953 52.112 154.496 52.112C153.889 52.112 153.343 51.986 152.858 51.734C152.382 51.482 152.004 51.1087 151.724 50.614C151.453 50.1193 151.318 49.522 151.318 48.822V44.286H152.9V48.584C152.9 49.2747 153.073 49.8067 153.418 50.18C153.763 50.544 154.235 50.726 154.832 50.726C155.429 50.726 155.901 50.544 156.246 50.18C156.601 49.8067 156.778 49.2747 156.778 48.584V44.286H158.374ZM162.216 45.406C162.449 45.014 162.757 44.7107 163.14 44.496C163.532 44.272 163.994 44.16 164.526 44.16V45.812H164.12C163.495 45.812 163.019 45.9707 162.692 46.288C162.375 46.6053 162.216 47.156 162.216 47.94V52H160.62V44.286H162.216V45.406ZM176.714 45.168C176.714 45.6627 176.597 46.1293 176.364 46.568C176.13 47.0067 175.757 47.366 175.244 47.646C174.73 47.9167 174.072 48.052 173.27 48.052H171.506V52H169.91V42.27H173.27C174.016 42.27 174.646 42.4007 175.16 42.662C175.682 42.914 176.07 43.2593 176.322 43.698C176.583 44.1367 176.714 44.6267 176.714 45.168ZM173.27 46.75C173.876 46.75 174.329 46.6147 174.628 46.344C174.926 46.064 175.076 45.672 175.076 45.168C175.076 44.104 174.474 43.572 173.27 43.572H171.506V46.75H173.27ZM177.844 48.108C177.844 47.3333 178.003 46.6473 178.32 46.05C178.647 45.4527 179.085 44.9907 179.636 44.664C180.196 44.328 180.812 44.16 181.484 44.16C182.091 44.16 182.618 44.2813 183.066 44.524C183.523 44.7573 183.887 45.0513 184.158 45.406V44.286H185.768V52H184.158V50.852C183.887 51.216 183.519 51.5193 183.052 51.762C182.585 52.0047 182.053 52.126 181.456 52.126C180.793 52.126 180.187 51.958 179.636 51.622C179.085 51.2767 178.647 50.8007 178.32 50.194C178.003 49.578 177.844 48.8827 177.844 48.108ZM184.158 48.136C184.158 47.604 184.046 47.142 183.822 46.75C183.607 46.358 183.323 46.0593 182.968 45.854C182.613 45.6487 182.231 45.546 181.82 45.546C181.409 45.546 181.027 45.6487 180.672 45.854C180.317 46.05 180.028 46.344 179.804 46.736C179.589 47.1187 179.482 47.576 179.482 48.108C179.482 48.64 179.589 49.1067 179.804 49.508C180.028 49.9093 180.317 50.2173 180.672 50.432C181.036 50.6373 181.419 50.74 181.82 50.74C182.231 50.74 182.613 50.6373 182.968 50.432C183.323 50.2267 183.607 49.928 183.822 49.536C184.046 49.1347 184.158 48.668 184.158 48.136ZM194.948 44.286L190.216 55.626H188.564L190.132 51.874L187.094 44.286H188.872L191.042 50.166L193.296 44.286H194.948ZM205.631 44.16C206.237 44.16 206.779 44.286 207.255 44.538C207.74 44.79 208.118 45.1633 208.389 45.658C208.669 46.1527 208.809 46.75 208.809 47.45V52H207.227V47.688C207.227 46.9973 207.054 46.47 206.709 46.106C206.363 45.7327 205.892 45.546 205.295 45.546C204.697 45.546 204.221 45.7327 203.867 46.106C203.521 46.47 203.349 46.9973 203.349 47.688V52H201.767V47.688C201.767 46.9973 201.594 46.47 201.249 46.106C200.903 45.7327 200.432 45.546 199.835 45.546C199.237 45.546 198.761 45.7327 198.407 46.106C198.061 46.47 197.889 46.9973 197.889 47.688V52H196.293V44.286H197.889V45.168C198.15 44.8507 198.481 44.6033 198.883 44.426C199.284 44.2487 199.713 44.16 200.171 44.16C200.787 44.16 201.337 44.2907 201.823 44.552C202.308 44.8133 202.681 45.1913 202.943 45.686C203.176 45.2193 203.54 44.8507 204.035 44.58C204.529 44.3 205.061 44.16 205.631 44.16ZM218.049 47.954C218.049 48.2433 218.031 48.5047 217.993 48.738H212.099C212.146 49.354 212.375 49.8487 212.785 50.222C213.196 50.5953 213.7 50.782 214.297 50.782C215.156 50.782 215.763 50.4227 216.117 49.704H217.839C217.606 50.4133 217.181 50.9967 216.565 51.454C215.959 51.902 215.203 52.126 214.297 52.126C213.56 52.126 212.897 51.9627 212.309 51.636C211.731 51.3 211.273 50.8333 210.937 50.236C210.611 49.6293 210.447 48.9293 210.447 48.136C210.447 47.3427 210.606 46.6473 210.923 46.05C211.25 45.4433 211.703 44.9767 212.281 44.65C212.869 44.3233 213.541 44.16 214.297 44.16C215.025 44.16 215.674 44.3187 216.243 44.636C216.813 44.9533 217.256 45.4013 217.573 45.98C217.891 46.5493 218.049 47.2073 218.049 47.954ZM216.383 47.45C216.374 46.862 216.164 46.3907 215.753 46.036C215.343 45.6813 214.834 45.504 214.227 45.504C213.677 45.504 213.205 45.6813 212.813 46.036C212.421 46.3813 212.188 46.8527 212.113 47.45H216.383ZM223.652 44.16C224.259 44.16 224.8 44.286 225.276 44.538C225.761 44.79 226.139 45.1633 226.41 45.658C226.681 46.1527 226.816 46.75 226.816 47.45V52H225.234V47.688C225.234 46.9973 225.061 46.47 224.716 46.106C224.371 45.7327 223.899 45.546 223.302 45.546C222.705 45.546 222.229 45.7327 221.874 46.106C221.529 46.47 221.356 46.9973 221.356 47.688V52H219.76V44.286H221.356V45.168C221.617 44.8507 221.949 44.6033 222.35 44.426C222.761 44.2487 223.195 44.16 223.652 44.16ZM230.854 45.588V49.858C230.854 50.1473 230.919 50.3573 231.05 50.488C231.19 50.6093 231.423 50.67 231.75 50.67H232.73V52H231.47C230.751 52 230.201 51.832 229.818 51.496C229.435 51.16 229.244 50.614 229.244 49.858V45.588H228.334V44.286H229.244V42.368H230.854V44.286H232.73V45.588H230.854ZM238.93 43.264C238.64 43.264 238.398 43.166 238.202 42.97C238.006 42.774 237.908 42.5313 237.908 42.242C237.908 41.9527 238.006 41.71 238.202 41.514C238.398 41.318 238.64 41.22 238.93 41.22C239.21 41.22 239.448 41.318 239.644 41.514C239.84 41.71 239.938 41.9527 239.938 42.242C239.938 42.5313 239.84 42.774 239.644 42.97C239.448 43.166 239.21 43.264 238.93 43.264ZM239.714 44.286V52H238.118V44.286H239.714ZM244.749 52.126C244.142 52.126 243.596 52.0187 243.111 51.804C242.635 51.58 242.257 51.2813 241.977 50.908C241.697 50.5253 241.548 50.1007 241.529 49.634H243.181C243.209 49.9607 243.363 50.236 243.643 50.46C243.932 50.6747 244.292 50.782 244.721 50.782C245.169 50.782 245.514 50.698 245.757 50.53C246.009 50.3527 246.135 50.1287 246.135 49.858C246.135 49.5687 245.995 49.354 245.715 49.214C245.444 49.074 245.01 48.92 244.413 48.752C243.834 48.5933 243.363 48.4393 242.999 48.29C242.635 48.1407 242.318 47.912 242.047 47.604C241.786 47.296 241.655 46.89 241.655 46.386C241.655 45.9753 241.776 45.602 242.019 45.266C242.262 44.9207 242.607 44.65 243.055 44.454C243.512 44.258 244.035 44.16 244.623 44.16C245.5 44.16 246.205 44.384 246.737 44.832C247.278 45.2707 247.568 45.8727 247.605 46.638H246.009C245.981 46.2927 245.841 46.0173 245.589 45.812C245.337 45.6067 244.996 45.504 244.567 45.504C244.147 45.504 243.825 45.5833 243.601 45.742C243.377 45.9007 243.265 46.1107 243.265 46.372C243.265 46.5773 243.34 46.75 243.489 46.89C243.638 47.03 243.82 47.142 244.035 47.226C244.25 47.3007 244.567 47.3987 244.987 47.52C245.547 47.6693 246.004 47.8233 246.359 47.982C246.723 48.1313 247.036 48.3553 247.297 48.654C247.558 48.9527 247.694 49.3493 247.703 49.844C247.703 50.2827 247.582 50.6747 247.339 51.02C247.096 51.3653 246.751 51.636 246.303 51.832C245.864 52.028 245.346 52.126 244.749 52.126ZM256.144 52.126C255.538 52.126 254.992 52.0187 254.506 51.804C254.03 51.58 253.652 51.2813 253.372 50.908C253.092 50.5253 252.943 50.1007 252.924 49.634H254.576C254.604 49.9607 254.758 50.236 255.038 50.46C255.328 50.6747 255.687 50.782 256.116 50.782C256.564 50.782 256.91 50.698 257.152 50.53C257.404 50.3527 257.53 50.1287 257.53 49.858C257.53 49.5687 257.39 49.354 257.11 49.214C256.84 49.074 256.406 48.92 255.808 48.752C255.23 48.5933 254.758 48.4393 254.394 48.29C254.03 48.1407 253.713 47.912 253.442 47.604C253.181 47.296 253.05 46.89 253.05 46.386C253.05 45.9753 253.172 45.602 253.414 45.266C253.657 44.9207 254.002 44.65 254.45 44.454C254.908 44.258 255.43 44.16 256.018 44.16C256.896 44.16 257.6 44.384 258.132 44.832C258.674 45.2707 258.963 45.8727 259 46.638H257.404C257.376 46.2927 257.236 46.0173 256.984 45.812C256.732 45.6067 256.392 45.504 255.962 45.504C255.542 45.504 255.22 45.5833 254.996 45.742C254.772 45.9007 254.66 46.1107 254.66 46.372C254.66 46.5773 254.735 46.75 254.884 46.89C255.034 47.03 255.216 47.142 255.43 47.226C255.645 47.3007 255.962 47.3987 256.382 47.52C256.942 47.6693 257.4 47.8233 257.754 47.982C258.118 48.1313 258.431 48.3553 258.692 48.654C258.954 48.9527 259.089 49.3493 259.098 49.844C259.098 50.2827 258.977 50.6747 258.734 51.02C258.492 51.3653 258.146 51.636 257.698 51.832C257.26 52.028 256.742 52.126 256.144 52.126ZM267.949 44.286V52H266.353V51.09C266.101 51.4073 265.769 51.6593 265.359 51.846C264.957 52.0233 264.528 52.112 264.071 52.112C263.464 52.112 262.918 51.986 262.433 51.734C261.957 51.482 261.579 51.1087 261.299 50.614C261.028 50.1193 260.893 49.522 260.893 48.822V44.286H262.475V48.584C262.475 49.2747 262.647 49.8067 262.993 50.18C263.338 50.544 263.809 50.726 264.407 50.726C265.004 50.726 265.475 50.544 265.821 50.18C266.175 49.8067 266.353 49.2747 266.353 48.584V44.286H267.949ZM269.663 48.136C269.663 47.3427 269.821 46.6473 270.139 46.05C270.465 45.4433 270.913 44.9767 271.483 44.65C272.052 44.3233 272.705 44.16 273.443 44.16C274.376 44.16 275.146 44.384 275.753 44.832C276.369 45.2707 276.784 45.9007 276.999 46.722H275.277C275.137 46.3393 274.913 46.0407 274.605 45.826C274.297 45.6113 273.909 45.504 273.443 45.504C272.789 45.504 272.267 45.7373 271.875 46.204C271.492 46.6613 271.301 47.3053 271.301 48.136C271.301 48.9667 271.492 49.6153 271.875 50.082C272.267 50.5487 272.789 50.782 273.443 50.782C274.367 50.782 274.978 50.376 275.277 49.564H276.999C276.775 50.348 276.355 50.9733 275.739 51.44C275.123 51.8973 274.357 52.126 273.443 52.126C272.705 52.126 272.052 51.9627 271.483 51.636C270.913 51.3 270.465 50.8333 270.139 50.236C269.821 49.6293 269.663 48.9293 269.663 48.136ZM278.197 48.136C278.197 47.3427 278.356 46.6473 278.673 46.05C279 45.4433 279.448 44.9767 280.017 44.65C280.586 44.3233 281.24 44.16 281.977 44.16C282.91 44.16 283.68 44.384 284.287 44.832C284.903 45.2707 285.318 45.9007 285.533 46.722H283.811C283.671 46.3393 283.447 46.0407 283.139 45.826C282.831 45.6113 282.444 45.504 281.977 45.504C281.324 45.504 280.801 45.7373 280.409 46.204C280.026 46.6613 279.835 47.3053 279.835 48.136C279.835 48.9667 280.026 49.6153 280.409 50.082C280.801 50.5487 281.324 50.782 281.977 50.782C282.901 50.782 283.512 50.376 283.811 49.564H285.533C285.309 50.348 284.889 50.9733 284.273 51.44C283.657 51.8973 282.892 52.126 281.977 52.126C281.24 52.126 280.586 51.9627 280.017 51.636C279.448 51.3 279 50.8333 278.673 50.236C278.356 49.6293 278.197 48.9293 278.197 48.136ZM294.334 47.954C294.334 48.2433 294.315 48.5047 294.278 48.738H288.384C288.43 49.354 288.659 49.8487 289.07 50.222C289.48 50.5953 289.984 50.782 290.582 50.782C291.44 50.782 292.047 50.4227 292.402 49.704H294.124C293.89 50.4133 293.466 50.9967 292.85 51.454C292.243 51.902 291.487 52.126 290.582 52.126C289.844 52.126 289.182 51.9627 288.594 51.636C288.015 51.3 287.558 50.8333 287.222 50.236C286.895 49.6293 286.732 48.9293 286.732 48.136C286.732 47.3427 286.89 46.6473 287.208 46.05C287.534 45.4433 287.987 44.9767 288.566 44.65C289.154 44.3233 289.826 44.16 290.582 44.16C291.31 44.16 291.958 44.3187 292.528 44.636C293.097 44.9533 293.54 45.4013 293.858 45.98C294.175 46.5493 294.334 47.2073 294.334 47.954ZM292.668 47.45C292.658 46.862 292.448 46.3907 292.038 46.036C291.627 45.6813 291.118 45.504 290.512 45.504C289.961 45.504 289.49 45.6813 289.098 46.036C288.706 46.3813 288.472 46.8527 288.398 47.45H292.668ZM298.844 52.126C298.238 52.126 297.692 52.0187 297.206 51.804C296.73 51.58 296.352 51.2813 296.072 50.908C295.792 50.5253 295.643 50.1007 295.624 49.634H297.276C297.304 49.9607 297.458 50.236 297.738 50.46C298.028 50.6747 298.387 50.782 298.816 50.782C299.264 50.782 299.61 50.698 299.852 50.53C300.104 50.3527 300.23 50.1287 300.23 49.858C300.23 49.5687 300.09 49.354 299.81 49.214C299.54 49.074 299.106 48.92 298.508 48.752C297.93 48.5933 297.458 48.4393 297.094 48.29C296.73 48.1407 296.413 47.912 296.142 47.604C295.881 47.296 295.75 46.89 295.75 46.386C295.75 45.9753 295.872 45.602 296.114 45.266C296.357 44.9207 296.702 44.65 297.15 44.454C297.608 44.258 298.13 44.16 298.718 44.16C299.596 44.16 300.3 44.384 300.832 44.832C301.374 45.2707 301.663 45.8727 301.7 46.638H300.104C300.076 46.2927 299.936 46.0173 299.684 45.812C299.432 45.6067 299.092 45.504 298.662 45.504C298.242 45.504 297.92 45.5833 297.696 45.742C297.472 45.9007 297.36 46.1107 297.36 46.372C297.36 46.5773 297.435 46.75 297.584 46.89C297.734 47.03 297.916 47.142 298.13 47.226C298.345 47.3007 298.662 47.3987 299.082 47.52C299.642 47.6693 300.1 47.8233 300.454 47.982C300.818 48.1313 301.131 48.3553 301.392 48.654C301.654 48.9527 301.789 49.3493 301.798 49.844C301.798 50.2827 301.677 50.6747 301.434 51.02C301.192 51.3653 300.846 51.636 300.398 51.832C299.96 52.028 299.442 52.126 298.844 52.126ZM306.897 45.588H305.469V52H303.859V45.588H302.949V44.286H303.859V43.74C303.859 42.8533 304.092 42.2093 304.559 41.808C305.035 41.3973 305.777 41.192 306.785 41.192V42.522C306.299 42.522 305.959 42.6153 305.763 42.802C305.567 42.9793 305.469 43.292 305.469 43.74V44.286H306.897V45.588ZM315.437 44.286V52H313.841V51.09C313.589 51.4073 313.258 51.6593 312.847 51.846C312.446 52.0233 312.017 52.112 311.559 52.112C310.953 52.112 310.407 51.986 309.921 51.734C309.445 51.482 309.067 51.1087 308.787 50.614C308.517 50.1193 308.381 49.522 308.381 48.822V44.286H309.963V48.584C309.963 49.2747 310.136 49.8067 310.481 50.18C310.827 50.544 311.298 50.726 311.895 50.726C312.493 50.726 312.964 50.544 313.309 50.18C313.664 49.8067 313.841 49.2747 313.841 48.584V44.286H315.437ZM319.279 41.64V52H317.683V41.64H319.279ZM323.11 41.64V52H321.514V41.64H323.11ZM325.99 52.098C325.7 52.098 325.458 52 325.262 51.804C325.066 51.608 324.968 51.3653 324.968 51.076C324.968 50.7867 325.066 50.544 325.262 50.348C325.458 50.152 325.7 50.054 325.99 50.054C326.27 50.054 326.508 50.152 326.704 50.348C326.9 50.544 326.998 50.7867 326.998 51.076C326.998 51.3653 326.9 51.608 326.704 51.804C326.508 52 326.27 52.098 325.99 52.098Z" fill="#080915"/>
<g clip-path="url(#clip0_118120_98)">
<path d="M62 35C55.3676 35 50 40.367 50 47C50 53.6324 55.367 59 62 59C68.6324 59 74 53.633 74 47C74 40.3676 68.633 35 62 35ZM68.3522 43.7218L60.6645 51.4095C60.3522 51.7218 59.8455 51.7219 59.5331 51.4095L55.6478 47.5242C55.3354 47.2118 55.3354 46.7052 55.6478 46.3928C55.9602 46.0804 56.4667 46.0804 56.7792 46.3928L60.0988 49.7125L67.2209 42.5904C67.5333 42.278 68.0399 42.278 68.3523 42.5904C68.6646 42.9029 68.6646 43.4094 68.3522 43.7218Z" fill="#00AE1C"/>
</g>
<defs>
<filter id="filter0_d_118120_98" x="0" y="0" width="384" height="114" filterUnits="userSpaceOnUse" color-interpolation-filters="sRGB">
<feFlood flood-opacity="0" result="BackgroundImageFix"/>
<feColorMatrix in="SourceAlpha" type="matrix" values="0 0 0 0 0 0 0 0 0 0 0 0 0 0 0 0 0 0 127 0" result="hardAlpha"/>
<feOffset dy="10"/>
<feGaussianBlur stdDeviation="15"/>
<feComposite in2="hardAlpha" operator="out"/>
<feColorMatrix type="matrix" values="0 0 0 0 0.156719 0 0 0 0 0.187018 0 0 0 0 0.245833 0 0 0 0.25 0"/>
<feBlend mode="normal" in2="BackgroundImageFix" result="effect1_dropShadow_118120_98"/>
<feBlend mode="normal" in="SourceGraphic" in2="effect1_dropShadow_118120_98" result="shape"/>
</filter>
<clipPath id="clip0_118120_98">
<rect width="24" height="24" fill="white" transform="translate(50 35)"/>
</clipPath>
</defs>
</svg>
